<svg xmlns="http://www.w3.org/2000/svg" width="800" height="680" viewBox="0 0 800 680">
<defs><linearGradient id="tank" x2="0" y2="1"><stop stop-color="#d1dedc"/><stop offset=".45" stop-color="#8ca6aa"/><stop offset="1" stop-color="#4d727e"/></linearGradient><linearGradient id="face"><stop stop-color="#517783"/><stop offset="1" stop-color="#274957"/></linearGradient><pattern id="grid" width="40" height="40" patternUnits="userSpaceOnUse"><path d="M40 0H0V40" fill="none" stroke="#819ba0" stroke-opacity=".12"/></pattern></defs>
<rect width="800" height="680" fill="#203d48"/><rect width="800" height="680" fill="url(#grid)"/><path d="M0 550L380 375 800 526 419 680Z" fill="#294753"/><g fill="none" stroke="#6f9098" stroke-width="1" opacity=".4"><path d="M0 600L420 409M100 650L520 450M230 680L640 495M0 550L419 680M130 490L670 680M250 435L800 633"/></g>
<!-- Conduites de départ et retour de chaleur -->
<g fill="none" stroke-linejoin="round"><path d="M147 385V122H582V355" stroke="#0b252f" stroke-width="29"/><path d="M147 385V122H582V355" stroke="#ef9567" stroke-width="19"/><path d="M188 420V172H637V410" stroke="#0b252f" stroke-width="26"/><path d="M188 420V172H637V410" stroke="#7fabb4" stroke-width="16"/><path d="M446 305V228H724V478" stroke="#0c2731" stroke-width="23"/><path d="M446 305V228H724V478" stroke="#a8bdbe" stroke-width="14"/></g>
<g stroke="#183641" stroke-width="3" fill="#c7d4cf"><path d="M253 106h12v33h-12zM501 106h12v33h-12zM306 158h12v29h-12zM628 288h20v13h-20z"/></g><g stroke="#ee986c" stroke-width="5" fill="none"><circle cx="359" cy="97" r="20"/><path d="M339 97h40m-20-20v45"/></g>
<!-- Corps de chaudière en perspective -->
<path d="M219 456v74l30 14v-76M459 450v76l30 14v-75" fill="#142f3b" stroke="#87a1a6" stroke-width="3"/>
<path d="M243 292L439 255C554 236 617 394 512 457L316 507Z" fill="url(#tank)" stroke="#bed0ce" stroke-width="2"/><ellipse cx="277" cy="400" rx="104" ry="114" transform="rotate(-16 277 400)" fill="url(#face)" stroke="#b4c9c9" stroke-width="5"/><ellipse cx="277" cy="400" rx="81" ry="90" transform="rotate(-16 277 400)" fill="#183a49" stroke="#72929c" stroke-width="3"/><path d="M338 281c99-6 143 149 65 209M397 266c99-6 143 149 65 209" fill="none" stroke="#d0dad3" stroke-width="5" opacity=".55"/>
<g fill="#d3dfdb"><circle cx="223" cy="312" r="4"/><circle cx="178" cy="365" r="4"/><circle cx="191" cy="451" r="4"/><circle cx="251" cy="502" r="4"/><circle cx="326" cy="481" r="4"/><circle cx="370" cy="421" r="4"/><circle cx="349" cy="344" r="4"/></g>
<!-- Brûleur -->
<path d="M265 379l54-9 38 27v59l-51 18-41-30z" fill="#ed8955" stroke="#ffb582" stroke-width="2"/><path d="M265 379l41 27 51-9M306 406v68" fill="none" stroke="#aa4f2d" stroke-width="2"/><ellipse cx="280" cy="416" rx="16" ry="23" fill="#1c3a44"/><path d="M273 402v27m7-30v34m7-25v20" stroke="#799399" stroke-width="2"/>
<!-- Armoire de régulation -->
<path d="M567 341l99-22 48 29v177l-102 27-45-31z" fill="#c5d3cf" stroke="#dfebe2" stroke-width="2"/><path d="M567 341l45 28 102-21M612 369v183" fill="none" stroke="#839f9f" stroke-width="2"/><path d="M631 388l63-15v39l-63 16z" fill="#163744"/><path d="M640 409l10-12 8 4 12-15 14 4" fill="none" stroke="#f1a677" stroke-width="2"/><g fill="#486b74"><circle cx="640" cy="449" r="5"/><circle cx="660" cy="444" r="5"/></g><circle cx="684" cy="438" r="5" fill="#e88655"/><path d="M625 486l73-18m-73 27l73-18m-73 27l73-18" stroke="#8fa8a7" stroke-width="2"/>
<path d="M461 265v-43" stroke="#cbd8d3" stroke-width="7"/><circle cx="461" cy="210" r="20" fill="#e2e6d9" stroke="#718c90" stroke-width="5"/><path d="M461 210l8-11" stroke="#bc5e34" stroke-width="3"/>
<g fill="none" stroke="#afc5c5" stroke-width="1" opacity=".75"><path d="M219 555l266-59m-266 53v13m266-72v13M91 319v170m-6-170h12m-12 170h12"/></g><g fill="#c4d1cd" font-family="Arial,sans-serif" font-size="10" letter-spacing="2"><text x="280" y="570">PRODUCTION DE CHALEUR</text><text x="476" y="79">CIRCUIT THERMIQUE</text></g><path d="M575 86v22" stroke="#ec9869"/><circle cx="575" cy="112" r="3" fill="#ec9869"/>
</svg>
