<svg xmlns="http://www.w3.org/2000/svg" width="640" height="400" viewBox="0 0 640 400"><rect width="640" height="400" fill="#253f49"/><g stroke="#8fa8a8" opacity=".15"><path d="M0 80h640M0 160h640M0 240h640M0 320h640M80 0v400M160 0v400M240 0v400M320 0v400M400 0v400M480 0v400M560 0v400"/></g><g fill="none" stroke-linejoin="round"><path d="M55 130h530M55 291h530" stroke="#122c36" stroke-width="32"/><path d="M55 130h530" stroke="#e58c5c" stroke-width="21"/><path d="M55 291h530" stroke="#7fadb5" stroke-width="21"/><path d="M164 130V68h84v223m112-161V68h85v223M164 291v61m196-61v61" stroke="#b3c6c4" stroke-width="13"/></g><g stroke="#203c46" stroke-width="3" fill="#c4d0c9"><path d="M97 112h12v36H97zM523 112h12v36h-12zM97 273h12v36H97zM523 273h12v36h-12z"/><rect x="233" y="197" width="30" height="42" rx="6"/><rect x="430" y="197" width="30" height="42" rx="6"/></g><g fill="none" stroke="#e98b57" stroke-width="5"><circle cx="248" cy="177" r="20"/><path d="M228 177h40m-20-20v40"/><circle cx="445" cy="177" r="20"/><path d="M425 177h40m-20-20v40"/></g><g fill="#edf0df" stroke="#72929b" stroke-width="4"><circle cx="164" cy="220" r="24"/><circle cx="360" cy="220" r="24"/></g><g stroke="#b26138" stroke-width="3"><path d="M164 220l12-12M360 220l9-14"/></g></svg>
